<svg width="24" height="24" viewBox="0 0 24 24" fill="none" xmlns="http://www.w3.org/2000/svg">
<g clip-path="url(#clip0_982_7489)">
<rect width="24" height="24" rx="12" fill="#4CAF50"/>
<g clip-path="url(#clip1_982_7489)">
<path d="M17.9987 8.99501C17.9845 8.71009 17.8429 8.4523 17.6304 8.26235C17.4179 8.0724 17.1346 7.97742 16.8372 8.00456C16.5397 8.01813 16.2706 8.15381 16.0865 8.35732L10.4207 14.4628L7.82855 12.2106C7.61608 12.0206 7.33279 11.9256 7.03534 11.9392C6.73789 11.9528 6.46876 12.0749 6.28462 12.2784C6.08632 12.4819 5.98717 12.7533 6.00133 13.0382C6.0155 13.3231 6.14298 13.5809 6.35544 13.7573L9.76909 16.7286C9.96739 16.905 10.2365 17 10.5056 17H10.5623H10.5765C10.8598 16.9864 11.1289 16.8643 11.3413 16.6472L17.7437 9.74124C17.9137 9.53772 18.0128 9.26636 17.9987 8.99501Z" fill="white"/>
</g>
</g>
<defs>
<clipPath id="clip0_982_7489">
<rect width="24" height="24" fill="white"/>
</clipPath>
<clipPath id="clip1_982_7489">
<rect width="16" height="16" fill="white" transform="translate(4 4)"/>
</clipPath>
</defs>
</svg>
